<?xml version="1.0" standalone="no"?>
<!DOCTYPE svg PUBLIC "-//W3C//DTD SVG 20010904//EN"
 "http://www.w3.org/TR/2001/REC-SVG-20010904/DTD/svg10.dtd">
<svg version="1.0" xmlns="http://www.w3.org/2000/svg"
 width="700.000000pt" height="700.000000pt" viewBox="0 0 700.000000 700.000000"
 preserveAspectRatio="xMidYMid meet">
<metadata>
Created by potrace 1.11, written by Peter Selinger 2001-2013
</metadata>
<g transform="translate(0.000000,700.000000) scale(0.100000,-0.100000)"
fill="#000000" stroke="none">
<path d="M1772 6980 c-46 -28 -52 -50 -67 -225 -4 -38 -8 -86 -10 -105 -2 -19
-7 -80 -10 -135 -4 -55 -8 -118 -10 -140 -24 -292 -24 -1025 0 -1390 5 -90 17
-239 20 -264 2 -14 6 -69 10 -121 3 -52 8 -106 10 -120 2 -14 7 -47 10 -75 3
-27 8 -66 10 -85 2 -19 7 -57 10 -85 3 -27 8 -66 11 -85 2 -19 6 -48 8 -65 4
-29 53 -339 60 -380 15 -79 21 -113 37 -190 6 -27 13 -63 15 -80 18 -108 127
-558 180 -745 154 -537 325 -993 563 -1494 70 -147 72 -132 -29 -174 -30 -13
-64 -27 -75 -32 -11 -6 -69 -28 -129 -50 -60 -23 -122 -48 -137 -56 -38 -19
-61 -56 -61 -97 0 -42 48 -141 107 -221 l45 -59 -71 -39 c-39 -21 -90 -51
-113 -66 -271 -178 -385 -209 -544 -148 -40 15 -145 72 -235 126 -276 165
-345 193 -492 194 -171 1 -309 -51 -580 -220 -72 -45 -163 -100 -203 -124 -56
-32 -77 -50 -88 -76 -25 -59 4 -125 62 -144 57 -19 107 4 353 158 299 188 429
221 594 152 66 -28 245 -128 277 -156 27 -22 231 -124 274 -135 70 -19 79 -20
148 -26 144 -11 279 38 524 192 343 215 409 213 799 -27 209 -128 326 -168
475 -163 132 5 218 40 415 169 230 151 290 178 395 178 87 1 183 -37 375 -148
197 -113 249 -139 342 -170 133 -44 315 -38 427 14 79 37 183 93 251 135 374
235 455 231 883 -38 137 -86 251 -145 282 -145 40 0 87 34 100 74 19 58 -1
100 -66 142 -29 19 -56 34 -59 34 -4 0 -82 47 -173 103 -270 168 -388 215
-547 221 -100 4 -183 -13 -273 -55 -35 -16 -65 -29 -67 -29 -2 0 -80 -46 -172
-102 -211 -128 -291 -161 -393 -161 -95 0 -167 26 -340 123 -69 39 -140 78
-157 87 -18 9 -33 21 -33 26 0 5 20 37 44 71 58 81 152 237 161 267 4 13 11
29 16 35 14 17 99 234 104 267 3 17 8 34 11 39 3 4 7 16 9 25 15 66 34 164 39
193 3 19 8 46 11 60 4 14 8 105 10 202 3 169 2 179 -18 209 -12 18 -38 38 -58
44 -33 12 -49 8 -255 -61 -121 -40 -279 -90 -350 -109 -147 -41 -377 -95 -382
-90 -2 2 19 50 46 107 28 57 78 162 112 233 100 209 157 328 252 525 49 102
90 194 90 205 3 72 -5 81 -202 235 -137 107 -284 228 -400 328 -68 59 -403
391 -455 452 -76 88 -178 213 -241 295 -84 109 -290 415 -299 444 -3 12 -11
21 -16 21 -5 0 -9 5 -9 10 0 6 -12 29 -26 51 -24 39 -36 59 -111 194 -177 318
-366 744 -538 1215 l-82 224 271 129 c149 71 294 139 321 152 285 132 280 130
291 181 4 23 0 34 -21 54 l-26 24 -502 1 -502 0 -13 40 c-7 22 -25 80 -40 129
-30 97 -51 123 -112 132 -25 3 -45 -1 -68 -16z m868 -438 c0 -1 -37 -20 -82
-41 -46 -21 -132 -62 -193 -91 -164 -78 -237 -111 -240 -108 -3 4 -75 234 -75
240 0 2 133 4 295 3 162 0 295 -1 295 -3z m-676 -458 c150 -442 311 -834 502
-1219 311 -628 638 -1098 1059 -1521 187 -187 319 -304 580 -514 105 -84 191
-156 193 -160 3 -9 -22 -64 -138 -305 -45 -93 -99 -206 -120 -250 -21 -44 -74
-154 -117 -245 -44 -91 -95 -196 -113 -235 -18 -38 -34 -71 -35 -73 -2 -3 -93
-19 -155 -27 -56 -8 -78 -19 -250 -125 -111 -69 -456 -250 -477 -250 -5 0 -29
42 -53 92 -24 51 -63 135 -88 188 -73 155 -179 412 -254 615 -69 187 -81 221
-151 440 -47 145 -131 449 -168 605 -16 69 -37 154 -45 190 -9 36 -18 76 -20
90 -3 14 -18 90 -34 170 -33 165 -79 437 -95 565 -3 28 -10 77 -15 110 -10 66
-26 202 -46 404 -32 333 -48 719 -45 1126 1 171 4 335 5 365 2 30 4 79 5 109
0 30 3 52 6 49 3 -2 34 -90 69 -194z m2931 -4516 c-3 -24 -7 -63 -9 -88 -21
-200 -80 -399 -175 -589 -48 -94 -92 -165 -166 -264 l-50 -68 -55 7 c-103 13
-158 13 -226 -2 -82 -17 -210 -78 -324 -154 -210 -141 -293 -181 -384 -185
-94 -3 -197 39 -382 155 -209 132 -334 185 -456 194 -36 2 -75 9 -85 14 -24
13 -123 118 -123 130 0 6 19 17 43 27 23 9 56 22 72 30 17 7 93 39 170 71 153
63 568 270 659 328 31 20 59 36 62 36 3 0 30 16 60 35 30 19 57 35 61 35 3 0
14 7 23 15 15 13 89 29 235 51 246 37 724 158 1005 254 45 15 49 13 45 -32z"/>
<path d="M5812 6655 c-86 -65 -224 -208 -292 -303 -63 -88 -124 -206 -160
-309 -24 -67 -29 -69 -77 -24 -71 67 -297 159 -363 147 -50 -8 -70 -27 -75
-71 -3 -25 27 -65 53 -71 173 -38 249 -74 335 -158 34 -34 71 -73 82 -88 23
-33 68 -45 101 -28 24 14 39 48 50 114 15 101 93 288 156 378 69 99 215 252
285 301 38 25 63 70 56 98 -7 24 -50 59 -73 59 -10 0 -45 -20 -78 -45z"/>
<path d="M6883 5735 c-18 -7 -70 -51 -116 -97 -104 -103 -165 -191 -206 -301
l-10 -27 -36 25 c-48 32 -139 66 -195 72 -64 7 -99 -27 -90 -87 4 -28 32 -49
81 -59 74 -16 126 -47 191 -112 45 -46 65 -59 88 -59 35 0 67 29 75 67 33 162
84 254 213 382 88 86 105 108 105 134 0 20 -8 38 -27 54 -31 27 -31 27 -73 8z"/>
</g>
</svg>
